<svg xmlns="http://www.w3.org/2000/svg" viewBox="0 -38 72 74">
  <polygon points="36,0 0,18 36,36 72,18" fill="#35b49c22"/>
  <polygon points="36,0 0,18 36,36 72,18" fill="none" stroke="#35b49c" stroke-width="3.5" stroke-linejoin="round"/>
  <polygon points="36,0 72,18 72,-20 36,-38" fill="#35b49c14"/>
  <polygon points="36,0 72,18 72,-20 36,-38" fill="none" stroke="#35b49c" stroke-width="3.5" stroke-linejoin="round"/>
  <polygon points="36,0 0,18 0,-20 36,-38" fill="#e7c46a14"/>
  <polygon points="36,0 0,18 0,-20 36,-38" fill="none" stroke="#e7c46a" stroke-width="3.5" stroke-linejoin="round"/>
  <line x1="36" y1="0" x2="36" y2="-38" stroke="#edece7" stroke-width="4" stroke-linecap="round"/>
  <line x1="0" y1="18" x2="36" y2="36" stroke="#e7c46a" stroke-width="3.5" stroke-linecap="round"/>
  <line x1="36" y1="36" x2="72" y2="18" stroke="#35b49c" stroke-width="3.5" stroke-linecap="round"/>
</svg>